<?xml version="1.0" encoding="UTF-8"?>
<!DOCTYPE svg PUBLIC "-//W3C//DTD SVG 1.1//EN" "http://www.w3.org/Graphics/SVG/1.1/DTD/svg11.dtd">
<svg xmlns="http://www.w3.org/2000/svg" version="1.1" width="490px" height="437px" style="shape-rendering:geometricPrecision; text-rendering:geometricPrecision; image-rendering:optimizeQuality; fill-rule:evenodd; clip-rule:evenodd" xmlns:xlink="http://www.w3.org/1999/xlink">
<g><path style="opacity:0.98" fill="#61dafb" d="M 136.5,-0.5 C 142.167,-0.5 147.833,-0.5 153.5,-0.5C 177.901,4.86613 199.901,15.3661 219.5,31C 227.688,38.0223 236.021,44.8557 244.5,51.5C 263.736,33.2075 285.403,18.3742 309.5,7C 317.119,3.95953 324.785,1.45953 332.5,-0.5C 339.833,-0.5 347.167,-0.5 354.5,-0.5C 369.395,3.2213 379.895,12.2213 386,26.5C 393.705,47.503 396.371,69.1696 394,91.5C 392.718,106.311 390.551,120.978 387.5,135.5C 418.766,143.964 446.766,158.464 471.5,179C 479.425,187.365 485.425,196.865 489.5,207.5C 489.5,214.167 489.5,220.833 489.5,227.5C 487.021,235.455 483.188,242.788 478,249.5C 463.333,265.163 446.166,277.33 426.5,286C 414.14,291.23 401.64,296.064 389,300.5C 390.656,312.446 392.323,324.446 394,336.5C 396.723,358.097 395.39,379.43 390,400.5C 384.047,421.301 370.547,433.301 349.5,436.5C 346.167,436.5 342.833,436.5 339.5,436.5C 312.415,430.959 288.082,419.459 266.5,402C 259.039,396.207 251.872,390.041 245,383.5C 224.883,402.942 202.049,418.442 176.5,430C 168.837,432.662 161.171,434.828 153.5,436.5C 147.833,436.5 142.167,436.5 136.5,436.5C 116.517,431.013 104.017,418.013 99,397.5C 92.6237,365.692 93.457,334.025 101.5,302.5C 101.167,301.833 100.833,301.167 100.5,300.5C 75.8962,292.862 52.8962,282.029 31.5,268C 16.1241,258.011 5.45743,244.511 -0.5,227.5C -0.5,221.167 -0.5,214.833 -0.5,208.5C 1.97879,200.545 5.81213,193.212 11,186.5C 26.7969,169.845 45.2969,157.012 66.5,148C 78.137,143.399 89.8037,138.899 101.5,134.5C 93.3288,101.992 92.4955,69.3253 99,36.5C 104.19,16.4744 116.69,4.14108 136.5,-0.5 Z M 140.5,22.5 C 155.591,22.9183 169.591,27.085 182.5,35C 198.918,44.4123 213.918,55.7457 227.5,69C 212.881,84.5935 199.214,100.927 186.5,118C 165.337,120.638 144.337,124.138 123.5,128.5C 121.235,116.242 119.402,103.909 118,91.5C 116.452,74.5752 117.785,57.9085 122,41.5C 125.052,31.9495 131.219,25.6161 140.5,22.5 Z M 336.5,22.5 C 353.806,20.6186 364.306,28.2853 368,45.5C 371.763,63.0414 372.429,80.7081 370,98.5C 368.606,108.527 367.106,118.527 365.5,128.5C 344.659,124.138 323.659,120.638 302.5,118C 289.399,101.063 275.732,84.5626 261.5,68.5C 278.087,52.4172 296.754,39.2505 317.5,29C 323.846,26.4968 330.179,24.3301 336.5,22.5 Z M 243.5,85.5 C 253.003,94.8377 262.003,104.671 270.5,115C 253.167,115.667 235.833,115.667 218.5,115C 226.485,104.857 234.819,95.0238 243.5,85.5 Z M 224.5,138.5 C 246.224,138.058 267.891,138.892 289.5,141C 305.306,164.098 319.473,188.265 332,213.5C 332.991,215.447 333.325,217.447 333,219.5C 320.395,245.892 305.895,271.058 289.5,295C 259.457,298.498 229.457,298.332 199.5,294.5C 182.98,270.81 168.48,245.81 156,219.5C 159.448,209.591 163.781,199.924 169,190.5C 178.247,173.666 188.247,157.333 199,141.5C 207.563,140.169 216.063,139.169 224.5,138.5 Z M 162.5,144.5 C 164.527,144.338 166.527,144.505 168.5,145C 159.368,159.426 150.868,174.259 143,189.5C 138.298,177.06 133.798,164.56 129.5,152C 140.583,149.287 151.583,146.787 162.5,144.5 Z M 320.5,145.5 C 321.274,144.853 322.274,144.52 323.5,144.5C 334.564,146.346 345.564,148.513 356.5,151C 357.428,151.388 358.095,152.055 358.5,153C 354.759,165.315 350.592,177.482 346,189.5C 338.231,174.279 329.731,159.613 320.5,145.5 Z M 106.5,157.5 C 113.06,178.002 120.726,198.169 129.5,218C 121.085,237.006 113.918,256.506 108,276.5C 81.6311,270.568 57.7978,259.068 36.5,242C 28.964,235.584 24.2973,227.584 22.5,218C 22.9008,211.796 25.0675,206.296 29,201.5C 41.563,188.609 56.063,178.442 72.5,171C 83.8138,166.179 95.1471,161.679 106.5,157.5 Z M 381.5,157.5 C 404.394,164.514 425.728,174.68 445.5,188C 453.421,193.919 459.921,201.086 465,209.5C 467.651,217.335 466.651,224.669 462,231.5C 448.459,246.536 432.293,258.036 413.5,266C 403.065,270.534 392.398,274.367 381.5,277.5C 375.857,256.88 368.523,236.88 359.5,217.5C 368.523,198.121 375.856,178.121 381.5,157.5 Z M 142.5,246.5 C 150.636,261.433 159.303,276.1 168.5,290.5C 167.833,290.833 167.167,291.167 166.5,291.5C 154.443,289.38 142.443,287.047 130.5,284.5C 133.902,271.628 137.902,258.961 142.5,246.5 Z M 345.5,246.5 C 351.03,258.581 355.697,271.081 359.5,284C 347.254,286.93 334.92,289.43 322.5,291.5C 321.833,291.167 321.167,290.833 320.5,290.5C 329.869,276.429 338.203,261.762 345.5,246.5 Z M 363.5,306.5 C 365.463,308.967 366.629,311.967 367,315.5C 371.078,335.313 372.411,355.313 371,375.5C 370.603,388.985 365.77,400.485 356.5,410C 349.715,412.446 342.715,413.113 335.5,412C 321.168,408.166 307.834,402.166 295.5,394C 283.802,385.481 272.469,376.481 261.5,367C 275.919,351.252 289.586,334.918 302.5,318C 323.205,315.441 343.538,311.608 363.5,306.5 Z M 124.5,307.5 C 145.427,311.632 166.427,315.299 187.5,318.5C 199.889,335.395 213.223,351.561 227.5,367C 212.615,381.772 195.948,394.106 177.5,404C 165.927,410.306 153.594,413.306 140.5,413C 132.531,411.034 127.031,406.201 124,398.5C 117.587,378.588 115.92,358.255 119,337.5C 120.135,327.328 121.968,317.328 124.5,307.5 Z M 218.5,320.5 C 235.725,320.495 253.058,320.495 270.5,320.5C 262.188,330.647 253.688,340.647 245,350.5C 235.558,340.9 226.724,330.9 218.5,320.5 Z"/></g>
<g><path style="opacity:0.988" fill="#61dafb" d="M 238.5,171.5 C 266.241,170.76 283.407,183.76 290,210.5C 292.057,237.436 280.224,254.936 254.5,263C 225.622,266.435 207.122,254.268 199,226.5C 196.634,196.737 209.8,178.403 238.5,171.5 Z"/></g>
</svg>
